<?xml version="1.0" encoding="iso-8859-1"?>
<!-- Generator: Adobe Illustrator 19.1.0, SVG Export Plug-In . SVG Version: 6.00 Build 0)  -->
<svg version="1.1" id="Capa_1" xmlns="http://www.w3.org/2000/svg" xmlns:xlink="http://www.w3.org/1999/xlink" x="0px" y="0px"
	 viewBox="0 0 62.999 62.999" style="enable-background:new 0 0 62.999 62.999;" xml:space="preserve">
<g>
	<g>
		<g id="group-31svg">
			<path id="path-1_25_" d="M30.61,62.999c-0.355,0-0.707-0.127-0.986-0.369L8.297,44.029c-0.025-0.022-0.05-0.046-0.074-0.07
				c-0.853-0.853-1.375-1.962-1.472-3.123c-0.107-1.289,0.321-2.486,1.208-3.373c0.026-0.025,0.054-0.051,0.081-0.075l21.591-18.602
				c0.446-0.382,1.285-0.47,1.818-0.226c0.534,0.244,1.088,0.776,1.088,1.363v12.25c5-4.243,8.85-10.659,8.85-17.286
				c0-4.947-1.291-9.163-3.627-12.533c-0.367-0.532-0.407-1.238-0.02-1.754c0.387-0.517,1.036-0.726,1.646-0.525
				C49.361,3.39,56.264,12.939,56.264,23.84c0,13.736-10.727,24.244-23.727,24.998v12.661c0,0.588-0.556,1.122-1.092,1.365
				C31.246,62.955,30.821,62.999,30.61,62.999z M10.525,41.806L29.537,58.2V47.381c0-0.826,0.455-1.497,1.281-1.5
				c12.79-0.041,22.326-9.517,22.326-22.041c0-8.249-4.158-15.394-10.794-19.188c1.247,3.026,1.849,6.451,1.849,10.235
				c0,8.526-4.917,16.719-12.812,21.381c-0.465,0.272-0.832,0.277-1.301,0.01c-0.467-0.266-0.549-0.764-0.549-1.302V23.195
				L10.262,39.617c-0.236,0.255-0.34,0.581-0.309,0.97C9.989,41.022,10.197,41.464,10.525,41.806z"/>
		</g>
	</g>
	<g>
	</g>
	<g>
	</g>
	<g>
	</g>
	<g>
	</g>
	<g>
	</g>
	<g>
	</g>
	<g>
	</g>
	<g>
	</g>
	<g>
	</g>
	<g>
	</g>
	<g>
	</g>
	<g>
	</g>
	<g>
	</g>
	<g>
	</g>
	<g>
	</g>
</g>
<g>
</g>
<g>
</g>
<g>
</g>
<g>
</g>
<g>
</g>
<g>
</g>
<g>
</g>
<g>
</g>
<g>
</g>
<g>
</g>
<g>
</g>
<g>
</g>
<g>
</g>
<g>
</g>
<g>
</g>
</svg>
